<?xml version="1.0" encoding="UTF-8" standalone="no"?><!DOCTYPE svg PUBLIC "-//W3C//DTD SVG 1.1//EN" "http://www.w3.org/Graphics/SVG/1.1/DTD/svg11.dtd"><svg width="100%" height="100%" viewBox="0 0 155 155" version="1.1" xmlns="http://www.w3.org/2000/svg" xmlns:xlink="http://www.w3.org/1999/xlink" xml:space="preserve" xmlns:serif="http://www.serif.com/" style="fill-rule:evenodd;clip-rule:evenodd;stroke-linejoin:round;stroke-miterlimit:2;"><g><clipPath id="_clip1"><rect x="0" y="4.167" width="770.833" height="150"/></clipPath><g clip-path="url(#_clip1)"><path d="M409.452,120.874c1.592,0 3.115,0.167 4.568,0.501c1.454,0.334 2.746,0.79 3.88,1.368l-0.504,4.649l-0.596,-0.257c-2.57,-1.074 -5.035,-1.611 -7.394,-1.611c-2.357,0 -4.354,0.517 -5.992,1.55c-1.638,1.033 -2.877,2.446 -3.719,4.239c-0.842,1.793 -1.263,3.844 -1.263,6.153c0,2.31 0.413,4.36 1.24,6.153c0.826,1.792 2.051,3.205 3.673,4.239c1.623,1.033 3.597,1.55 5.923,1.55c1.5,0 2.893,-0.16 4.178,-0.479c1.285,-0.319 2.602,-0.782 3.949,-1.39l0.504,4.695l-0.587,0.251c-2.548,1.048 -5.23,1.572 -8.044,1.572c-3.153,0 -5.969,-0.684 -8.448,-2.051c-2.48,-1.368 -4.415,-3.305 -5.808,-5.811c-1.393,-2.507 -2.089,-5.416 -2.089,-8.728c0,-3.312 0.712,-6.221 2.135,-8.728c1.423,-2.507 3.382,-4.444 5.877,-5.811c2.495,-1.367 5.334,-2.051 8.517,-2.051Zm-189.738,0.638l0,17l0.005,0.565c0.061,3.163 0.641,5.648 1.739,7.456c1.163,1.915 3.352,2.872 6.566,2.872c3.214,0 5.403,-0.957 6.566,-2.872c1.163,-1.914 1.745,-4.588 1.745,-8.022l0,-17l5.005,0l0,18.322l-0.006,0.553c-0.089,4.202 -1.205,7.505 -3.346,9.907c-2.235,2.507 -5.555,3.76 -9.963,3.76c-4.408,0 -7.729,-1.253 -9.963,-3.76c-2.235,-2.507 -3.352,-5.994 -3.352,-10.46l0,-18.322l5.005,0Zm401.723,8.933c2.358,0 4.408,0.456 6.154,1.368l-0.55,4.011l-0.433,-0.204c-1.583,-0.715 -3.246,-1.072 -4.987,-1.072c-2.325,0 -4.125,0.676 -5.392,2.028c-1.271,1.353 -1.908,3.213 -1.908,5.583c0,2.31 0.637,4.163 1.908,5.56c1.267,1.398 3.05,2.097 5.346,2.097c1.929,0 3.767,-0.471 5.513,-1.413l0.55,3.92l-0.288,0.167c-0.688,0.381 -1.542,0.697 -2.558,0.95c-1.167,0.289 -2.358,0.433 -3.583,0.433c-2.508,0 -4.65,-0.509 -6.429,-1.527c-1.775,-1.018 -3.112,-2.408 -4.017,-4.17c-0.9,-1.762 -1.354,-3.737 -1.354,-5.925c0,-2.248 0.446,-4.262 1.333,-6.039c0.888,-1.778 2.233,-3.183 4.038,-4.216c1.808,-1.033 4.025,-1.55 6.658,-1.55Zm-287.298,0.045c3,0 5.387,0.874 7.162,2.621c1.775,1.747 2.663,4.079 2.663,6.996c0,0.79 -0.092,1.641 -0.275,2.553l-15.703,0l0.06,0.438c0.348,2.296 1.178,3.973 2.489,5.032c1.392,1.124 3.16,1.686 5.303,1.686c2.418,0 4.637,-0.516 6.657,-1.55l0.459,3.874l-0.526,0.239c-2.286,0.995 -4.651,1.493 -7.095,1.493c-2.602,0 -4.829,-0.532 -6.68,-1.595c-1.852,-1.063 -3.245,-2.492 -4.178,-4.284c-0.934,-1.793 -1.4,-3.798 -1.4,-6.016c0,-2.097 0.436,-4.019 1.309,-5.766c0.872,-1.747 2.143,-3.137 3.811,-4.17c1.668,-1.033 3.65,-1.55 5.946,-1.55Zm37.486,-11.257l0,34.183l-4.408,0l-0.275,-2.142l-0.285,0.28c-1.645,1.545 -3.753,2.317 -6.326,2.317c-2.02,0 -3.826,-0.517 -5.418,-1.55c-1.592,-1.033 -2.824,-2.446 -3.696,-4.239c-0.872,-1.793 -1.308,-3.753 -1.308,-5.88c0,-2.097 0.421,-4.041 1.262,-5.834c0.842,-1.792 2.051,-3.221 3.627,-4.284c1.577,-1.064 3.421,-1.595 5.533,-1.595c2.694,0 4.867,0.805 6.52,2.416l0,-13.673l4.775,0Zm63.283,11.212c2.325,0 4.354,0.524 6.083,1.573c1.729,1.048 3.054,2.461 3.971,4.239c0.921,1.778 1.379,3.745 1.379,5.902c0,2.158 -0.458,4.125 -1.379,5.903c-0.917,1.778 -2.242,3.19 -3.971,4.239c-1.729,1.048 -3.758,1.572 -6.083,1.572c-2.358,0 -4.4,-0.524 -6.129,-1.572c-1.729,-1.048 -3.046,-2.461 -3.95,-4.239c-0.9,-1.778 -1.354,-3.745 -1.354,-5.903c0,-2.157 0.454,-4.125 1.354,-5.902c0.904,-1.778 2.221,-3.19 3.95,-4.239c1.729,-1.048 3.771,-1.573 6.129,-1.573Zm110.117,0.456l0,12.032l0.004,0.454c0.05,2.082 0.438,3.647 1.167,4.697c0.779,1.124 2.042,1.686 3.788,1.686c1.008,0 1.929,-0.19 2.754,-0.57c0.825,-0.38 1.517,-0.935 2.067,-1.664l0,-16.636l4.775,0l0,22.515l-4.363,0l-0.275,-1.96l-0.263,0.276c-1.438,1.427 -3.275,2.14 -5.525,2.14c-2.996,0 -5.233,-0.881 -6.7,-2.644c-1.471,-1.762 -2.204,-4.315 -2.204,-7.657l0,-12.67l4.775,0Zm98.058,-0.41c2.817,0 4.867,0.76 6.154,2.279c1.283,1.519 1.929,4.102 1.929,7.748l0,5.625c0.012,0.993 0.062,1.747 0.158,2.26c0.108,0.578 0.321,0.988 0.642,1.231c0.325,0.243 0.837,0.365 1.542,0.365l0.55,0l-0.55,3.874l-1.058,0l-0.387,-0.005c-1.4,-0.037 -2.471,-0.279 -3.217,-0.724c-0.813,-0.486 -1.462,-1.246 -1.95,-2.279c-0.829,0.942 -1.837,1.679 -3.033,2.21c-1.192,0.532 -2.492,0.798 -3.9,0.798c-1.992,0 -3.621,-0.608 -4.892,-1.823c-1.271,-1.215 -1.904,-2.81 -1.904,-4.785c0,-1.975 0.696,-3.555 2.087,-4.74c1.396,-1.185 3.083,-2.028 5.075,-2.53c1.987,-0.501 4.008,-0.767 6.062,-0.798c-0.033,-1.732 -0.408,-2.925 -1.125,-3.578c-0.721,-0.653 -1.875,-0.98 -3.467,-0.98c-0.983,0 -1.954,0.144 -2.917,0.433c-0.967,0.288 -2.029,0.782 -3.192,1.481l-0.55,-3.874l0.492,-0.29c1,-0.56 2.083,-1.002 3.25,-1.328c1.363,-0.38 2.763,-0.57 4.2,-0.57Zm23.483,-5.378l0,5.788l5.554,0l0,3.783l-5.554,0l0,11.507c0.013,1.215 0.096,2.066 0.25,2.554c0.171,0.532 0.512,0.873 1.033,1.025c0.521,0.152 1.5,0.228 2.942,0.228l1.237,0l-0.367,3.874l-3.904,0l-0.392,-0.007c-1.792,-0.067 -3.154,-0.604 -4.083,-1.611c-0.996,-1.078 -1.492,-2.408 -1.492,-3.988l0,-13.582l-3.629,0l0.413,-3.783l3.217,0l0,-5.332l4.775,-0.456Zm36.079,5.332c2.329,0 4.354,0.524 6.087,1.573c1.729,1.048 3.05,2.461 3.971,4.239c0.917,1.778 1.375,3.745 1.375,5.902c0,2.158 -0.458,4.125 -1.375,5.903c-0.921,1.778 -2.242,3.19 -3.971,4.239c-1.733,1.048 -3.758,1.572 -6.087,1.572c-2.354,0 -4.4,-0.524 -6.129,-1.572c-1.729,-1.048 -3.046,-2.461 -3.946,-4.239c-0.904,-1.778 -1.354,-3.745 -1.354,-5.903c0,-2.157 0.45,-4.125 1.354,-5.902c0.9,-1.778 2.217,-3.19 3.946,-4.239c1.729,-1.048 3.775,-1.573 6.129,-1.573Zm55.183,0c2.388,0 4.562,0.532 6.521,1.595l-0.504,4.193l-0.408,-0.29c-0.808,-0.56 -1.617,-1.003 -2.417,-1.328c-0.933,-0.38 -1.967,-0.57 -3.1,-0.57c-1.192,0 -2.125,0.228 -2.8,0.684c-0.675,0.456 -1.008,1.124 -1.008,2.005c0,0.638 0.167,1.155 0.504,1.55c0.337,0.395 0.825,0.73 1.471,1.003c0.642,0.273 1.65,0.653 3.029,1.14c1.958,0.668 3.513,1.489 4.658,2.461c1.15,0.973 1.721,2.401 1.721,4.285c0,1.945 -0.708,3.547 -2.133,4.808c-1.421,1.261 -3.633,1.892 -6.633,1.892c-2.879,0 -5.45,-0.608 -7.712,-1.823l0.504,-4.375l0.388,0.267c0.8,0.523 1.708,0.973 2.733,1.35c1.196,0.441 2.496,0.661 3.904,0.661c1.317,0 2.325,-0.213 3.029,-0.638c0.704,-0.425 1.054,-1.063 1.054,-1.914c0,-0.942 -0.375,-1.664 -1.125,-2.165c-0.75,-0.501 -1.842,-0.98 -3.279,-1.436c-1.471,-0.486 -2.679,-0.965 -3.629,-1.435c-0.95,-0.471 -1.729,-1.132 -2.342,-1.983c-0.613,-0.851 -0.917,-1.945 -0.917,-3.282c0,-1.914 0.725,-3.502 2.179,-4.763c1.454,-1.261 3.558,-1.891 6.312,-1.891Zm-74.025,0.456l0,22.515l-4.775,0l0,-22.515l4.775,0Zm-422.655,-0.41c3.03,0 5.28,0.919 6.75,2.757c1.469,1.838 2.204,4.398 2.204,7.68l0,12.488l-4.775,0l0,-12.306l-0.005,-0.447c-0.052,-2.05 -0.463,-3.565 -1.234,-4.543c-0.827,-1.048 -2.189,-1.573 -4.087,-1.573c-1.163,0 -2.204,0.213 -3.122,0.638c-0.918,0.425 -1.668,1.048 -2.25,1.869l0,16.362l-4.775,0l0,-22.515l4.086,0l0.275,2.051l0.365,-0.281c1.959,-1.454 4.148,-2.18 6.568,-2.18Zm218.639,0c2.938,0 5.142,0.851 6.613,2.552c1.467,1.702 2.2,4.178 2.2,7.429l0,12.944l-4.821,0l0,-12.762l-0.004,-0.418c-0.046,-1.913 -0.429,-3.324 -1.142,-4.231c-0.767,-0.972 -2.004,-1.458 -3.721,-1.458c-3.55,0 -5.325,2.02 -5.325,6.062l0,12.808l-4.821,0l0,-12.306l-0.004,-0.436c-0.05,-2.142 -0.463,-3.682 -1.233,-4.623c-0.829,-1.002 -2.054,-1.504 -3.675,-1.504c-2.358,0 -4.133,0.82 -5.325,2.461l0,16.408l-4.775,0l0,-22.515l3.9,0l0.367,2.142l0.371,-0.292c1.983,-1.507 4.175,-2.261 6.562,-2.261c3.246,0 5.571,1.292 6.979,3.874c1.654,-2.582 4.271,-3.874 7.854,-3.874Zm-179.48,-11.257c1.255,0 2.464,0.167 3.627,0.501l-0.551,3.92l-0.377,-0.097c-0.62,-0.148 -1.199,-0.221 -1.735,-0.221c-1.867,0 -2.8,1.018 -2.8,3.053l0,4.512l5.647,0l0,3.783l-5.647,0l0,18.732l-4.775,0l0,-18.732l-3.627,0l0.551,-3.783l3.076,0l0,-5.105l0.008,-0.401c0.071,-1.846 0.643,-3.315 1.714,-4.407c1.148,-1.17 2.778,-1.755 4.89,-1.755Zm432.48,11.257c3.029,0 5.279,0.919 6.75,2.757c1.467,1.838 2.204,4.398 2.204,7.68l0,12.488l-4.775,0l0,-12.306l-0.008,-0.447c-0.05,-2.05 -0.463,-3.565 -1.233,-4.543c-0.825,-1.048 -2.188,-1.573 -4.088,-1.573c-1.163,0 -2.2,0.213 -3.121,0.638c-0.917,0.425 -1.667,1.048 -2.25,1.869l0,16.362l-4.775,0l0,-22.515l4.088,0l0.275,2.051l0.367,-0.281c1.958,-1.454 4.146,-2.18 6.567,-2.18Zm-417.125,0.41l0,22.515l-4.775,0l0,-22.515l4.775,0Zm264,-0.41c3.029,0 5.279,0.919 6.75,2.757c1.471,1.838 2.204,4.398 2.204,7.68l0,12.488l-4.775,0l0,-12.306l-0.004,-0.447c-0.054,-2.05 -0.463,-3.565 -1.237,-4.543c-0.825,-1.048 -2.188,-1.573 -4.083,-1.573c-1.167,0 -2.204,0.213 -3.125,0.638c-0.917,0.425 -1.667,1.048 -2.25,1.869l0,16.362l-4.775,0l0,-22.515l4.088,0l0.275,2.051l0.367,-0.281c1.958,-1.454 4.146,-2.18 6.567,-2.18Zm-296.225,0.41l0,22.515l-4.775,0l0,-22.515l4.775,0Zm239.759,-0.41c2.938,0 5.142,0.851 6.613,2.552c1.467,1.702 2.204,4.178 2.204,7.429l0,12.944l-4.825,0l0,-12.762l-0.004,-0.418c-0.046,-1.913 -0.429,-3.324 -1.142,-4.231c-0.767,-0.972 -2.004,-1.458 -3.721,-1.458c-3.55,0 -5.325,2.02 -5.325,6.062l0,12.808l-4.821,0l0,-12.306l-0.004,-0.436c-0.05,-2.142 -0.458,-3.682 -1.233,-4.623c-0.829,-1.002 -2.054,-1.504 -3.675,-1.504c-2.358,0 -4.133,0.82 -5.325,2.461l0,16.408l-4.775,0l0,-22.515l3.9,0l0.371,2.142l0.367,-0.292c1.988,-1.507 4.175,-2.261 6.567,-2.261c3.242,0 5.571,1.292 6.975,3.874c1.654,-2.582 4.271,-3.874 7.854,-3.874Zm78.754,0.41l0,22.515l-4.775,0l0,-22.515l4.775,0Zm-466.302,-73.73c1.312,-0.362 2.915,-0.076 5.023,1.161l8.625,5.045c6.44,3.763 4.646,24.585 3.693,31.715c0,0 -2.043,14.502 -8.515,25.86c-6.033,10.582 -16.525,18.082 -16.525,18.082c-6.429,4.197 -22.512,16.391 -28.948,12.623l-8.855,-5.183c-1.955,-1.143 -2.975,-2.296 -3.366,-3.503l23.076,-18.551c6.44,3.763 15.345,-5.108 18.514,-10.67l3.103,-5.44c3.171,-5.571 6.296,-17.816 -0.14,-21.584l4.316,-29.555Zm-117.333,0l4.316,29.555c-6.436,3.768 -3.311,16.013 -0.14,21.584l3.103,5.44c3.169,5.562 12.074,14.433 18.514,10.67l23.076,18.551c-0.39,1.208 -1.411,2.36 -3.365,3.503l-8.855,5.183c-6.437,3.768 -22.519,-8.426 -28.948,-12.623c0,0 -10.492,-7.5 -16.525,-18.082c-6.472,-11.359 -8.515,-25.86 -8.515,-25.86c-0.953,-7.131 -2.746,-27.952 3.693,-31.715l8.625,-5.045c2.109,-1.237 3.711,-1.523 5.023,-1.161Zm628.077,85.262l-0.442,0.017c-5.217,0.249 -7.825,1.777 -7.825,4.586c0,2.066 1.1,3.099 3.304,3.099c0.887,0 1.783,-0.213 2.687,-0.638c0.904,-0.425 1.663,-1.018 2.275,-1.778l0,-5.287Zm-211.483,-7.931c-2.083,0 -3.688,0.684 -4.821,2.051c-1.133,1.367 -1.7,3.236 -1.7,5.606c0,2.37 0.567,4.239 1.7,5.606c1.133,1.367 2.738,2.051 4.821,2.051c2.083,0 3.688,-0.684 4.821,-2.051c1.133,-1.368 1.7,-3.236 1.7,-5.606c0,-2.37 -0.567,-4.239 -1.7,-5.606c-1.133,-1.368 -2.738,-2.051 -4.821,-2.051Zm267.738,0c-2.079,0 -3.688,0.684 -4.821,2.051c-1.129,1.367 -1.696,3.236 -1.696,5.606c0,2.37 0.567,4.239 1.696,5.606c1.133,1.367 2.742,2.051 4.821,2.051c2.083,0 3.692,-0.684 4.825,-2.051c1.129,-1.368 1.696,-3.236 1.696,-5.606c0,-2.37 -0.567,-4.239 -1.696,-5.606c-1.133,-1.368 -2.742,-2.051 -4.825,-2.051Zm-341.535,0.046c-1.928,0 -3.459,0.706 -4.591,2.119c-1.132,1.413 -1.699,3.259 -1.699,5.538c0,2.188 0.566,4.003 1.699,5.446c1.132,1.443 2.663,2.165 4.591,2.165c1.775,0 3.237,-0.661 4.385,-1.982c1.148,-1.322 1.722,-3.198 1.722,-5.629c0,-2.34 -0.582,-4.201 -1.745,-5.583c-1.163,-1.382 -2.617,-2.074 -4.362,-2.074Zm-27.017,0c-3.092,0 -5.035,1.625 -5.831,4.877l10.79,0c0,-1.428 -0.413,-2.598 -1.24,-3.51c-0.826,-0.911 -2.066,-1.367 -3.719,-1.367Zm-227.518,-14.091l-22.953,17.613l0.001,0.004c-1.416,-1.411 -3.399,-6.931 -1.972,-8.049l17.208,-13.628c1.422,-1.12 6.3,2.652 7.716,4.059Zm-59.187,0c1.415,-1.408 6.294,-5.179 7.715,-4.059l17.208,13.628c1.427,1.118 -0.555,6.637 -1.972,8.049l0.001,-0.004l-22.953,-17.613Zm268.274,1.056l0,5.014l-4.775,0l0,-5.014l4.775,0Zm286.288,0l0,5.014l-4.775,0l0,-5.014l4.775,0Zm-318.513,0l0,5.014l-4.775,0l0,-5.014l4.775,0Zm400.367,0l0,5.014l-4.775,0l0,-5.014l4.775,0Zm-156.317,-97.368c23.083,0 40.187,15.849 40.187,37.5c0,21.65 -17.104,37.5 -40.187,37.5c-23.188,0 -40.183,-15.953 -40.183,-37.5c0,-21.547 16.996,-37.5 40.183,-37.5Zm-80.688,0c12.908,0 23.608,4.351 30.746,12.535l-10.913,9.945c-5.354,-5.594 -11.542,-8.184 -18.992,-8.184c-14.271,0 -24.029,9.427 -24.029,23.205c0,13.57 9.758,23.204 23.817,23.204c4.617,0 8.921,-0.829 13.221,-3.108l0,-21.236l15.529,0l0,29.42c-8.079,6.008 -19.2,9.22 -29.692,9.22c-23.083,0 -40.082,-15.643 -40.082,-37.5c0,-21.858 16.998,-37.5 40.394,-37.5Zm-106.496,1.243l36.514,44.026l0,-44.026l16.788,0l0,72.514l-13.955,0l-36.618,-44.026l0,44.026l-16.788,0l0,-72.514l14.06,-0Zm-31.477,0l0,72.514l-16.997,0l0,-72.514l16.997,-0Zm-62.325,0c19.621,0 31.897,10.048 31.897,26.312c0,10.877 -5.561,18.854 -15.109,22.894l16.473,23.308l-18.257,0l-14.165,-20.2l-15.634,0l0,20.2l-16.998,0l0,-72.514l31.792,-0Zm389.686,0l0,13.674l-23.5,0l0,58.84l-17,0l0,-58.84l-23.5,0l0,-13.674l64,0Zm64.633,0l0,13.467l-38.608,0l0,15.746l34.1,0l0,13.053l-34.1,0l0,16.782l39.975,0l0,13.467l-56.871,0l0,-72.514l55.504,-0Zm31.9,0l0,58.84l36.825,0l0,13.674l-53.825,0l0,-72.514l17,-0Zm-610.558,33.719c0.249,-1.804 5.971,-2.83 7.885,-2.295l-3.617,28.894c-1.919,-0.538 -7.586,-2.919 -7.342,-4.726l3.074,-21.873Zm-90.363,0l3.074,21.873c0.244,1.808 -5.423,4.188 -7.342,4.726l-3.617,-28.894c1.914,-0.535 7.636,0.491 7.885,2.295Zm495.687,-20.667c-13.117,0 -22.979,9.427 -22.979,23.205c0,13.778 9.863,23.204 22.979,23.204c13.117,0 22.979,-9.427 22.979,-23.204c0,-13.778 -9.862,-23.205 -22.979,-23.205Zm-281.93,0.622l-13.85,0l0,25.276l13.85,0c10.388,0 15.634,-4.765 15.634,-12.638c0,-7.976 -5.246,-12.638 -15.634,-12.638Zm-148.389,-1.767l27.031,11.34c-0.49,1.912 -4.247,6.315 -5.946,5.627l-20.63,-8.295c-1.7,-0.694 -0.944,-6.753 -0.455,-8.671Zm-40.263,-0.316c0.521,1.92 1.374,7.997 -0.315,8.659l-20.501,7.971c-1.689,0.667 -5.516,-3.796 -6.04,-5.719l0.003,0.003l26.852,-10.914Zm18.516,-32.809c13.151,0.119 26.832,5.614 26.832,5.614c6.701,2.746 25.773,11.616 25.839,19.03l0.091,9.932c0.025,2.43 -0.526,3.95 -1.498,4.897l-27.957,-11.069c-0.071,-7.414 -12.323,-10.851 -18.771,-10.912l-6.3,-0.054c-6.44,-0.058 -18.636,3.158 -18.571,10.572l-27.732,10.55c-0.859,-0.939 -1.355,-2.392 -1.376,-4.643l-0.097,-10.2c-0.071,-7.414 18.615,-15.134 25.493,-18.56c0,-0 11.792,-5.265 24.047,-5.157Z" style="fill:#191e2f;"/><path d="M409.452,120.874c1.592,0 3.115,0.167 4.568,0.501c1.454,0.334 2.746,0.79 3.88,1.368l-0.504,4.649l-0.596,-0.257c-2.57,-1.074 -5.035,-1.611 -7.394,-1.611c-2.357,0 -4.354,0.517 -5.992,1.55c-1.638,1.033 -2.877,2.446 -3.719,4.239c-0.842,1.793 -1.263,3.844 -1.263,6.153c0,2.31 0.413,4.36 1.24,6.153c0.826,1.792 2.051,3.205 3.673,4.239c1.623,1.033 3.597,1.55 5.923,1.55c1.5,0 2.893,-0.16 4.178,-0.479c1.285,-0.319 2.602,-0.782 3.949,-1.39l0.504,4.695l-0.587,0.251c-2.548,1.048 -5.23,1.572 -8.044,1.572c-3.153,0 -5.969,-0.684 -8.448,-2.051c-2.48,-1.368 -4.415,-3.305 -5.808,-5.811c-1.393,-2.507 -2.089,-5.416 -2.089,-8.728c0,-3.312 0.712,-6.221 2.135,-8.728c1.423,-2.507 3.382,-4.444 5.877,-5.811c2.495,-1.367 5.334,-2.051 8.517,-2.051Zm-189.738,0.638l0,17l0.005,0.565c0.061,3.163 0.641,5.648 1.739,7.456c1.163,1.915 3.352,2.872 6.566,2.872c3.214,0 5.403,-0.957 6.566,-2.872c1.163,-1.914 1.745,-4.588 1.745,-8.022l0,-17l5.005,0l0,18.322l-0.006,0.553c-0.089,4.202 -1.205,7.505 -3.346,9.907c-2.235,2.507 -5.555,3.76 -9.963,3.76c-4.408,0 -7.729,-1.253 -9.963,-3.76c-2.235,-2.507 -3.352,-5.994 -3.352,-10.46l0,-18.322l5.005,0Zm401.723,8.933c2.358,0 4.408,0.456 6.154,1.368l-0.55,4.011l-0.433,-0.204c-1.583,-0.715 -3.246,-1.072 -4.987,-1.072c-2.325,0 -4.125,0.676 -5.392,2.028c-1.271,1.353 -1.908,3.213 -1.908,5.583c0,2.31 0.637,4.163 1.908,5.56c1.267,1.398 3.05,2.097 5.346,2.097c1.929,0 3.767,-0.471 5.513,-1.413l0.55,3.92l-0.288,0.167c-0.688,0.381 -1.542,0.697 -2.558,0.95c-1.167,0.289 -2.358,0.433 -3.583,0.433c-2.508,0 -4.65,-0.509 -6.429,-1.527c-1.775,-1.018 -3.112,-2.408 -4.017,-4.17c-0.9,-1.762 -1.354,-3.737 -1.354,-5.925c0,-2.248 0.446,-4.262 1.333,-6.039c0.888,-1.778 2.233,-3.183 4.038,-4.216c1.808,-1.033 4.025,-1.55 6.658,-1.55Zm-287.298,0.045c3,0 5.387,0.874 7.162,2.621c1.775,1.747 2.663,4.079 2.663,6.996c0,0.79 -0.092,1.641 -0.275,2.553l-15.703,0l0.06,0.438c0.348,2.296 1.178,3.973 2.489,5.032c1.392,1.124 3.16,1.686 5.303,1.686c2.418,0 4.637,-0.516 6.657,-1.55l0.459,3.874l-0.526,0.239c-2.286,0.995 -4.651,1.493 -7.095,1.493c-2.602,0 -4.829,-0.532 -6.68,-1.595c-1.852,-1.063 -3.245,-2.492 -4.178,-4.284c-0.934,-1.793 -1.4,-3.798 -1.4,-6.016c0,-2.097 0.436,-4.019 1.309,-5.766c0.872,-1.747 2.143,-3.137 3.811,-4.17c1.668,-1.033 3.65,-1.55 5.946,-1.55Zm37.486,-11.257l0,34.183l-4.408,0l-0.275,-2.142l-0.285,0.28c-1.645,1.545 -3.753,2.317 -6.326,2.317c-2.02,0 -3.826,-0.517 -5.418,-1.55c-1.592,-1.033 -2.824,-2.446 -3.696,-4.239c-0.872,-1.793 -1.308,-3.753 -1.308,-5.88c0,-2.097 0.421,-4.041 1.262,-5.834c0.842,-1.792 2.051,-3.221 3.627,-4.284c1.577,-1.064 3.421,-1.595 5.533,-1.595c2.694,0 4.867,0.805 6.52,2.416l0,-13.673l4.775,0Zm63.283,11.212c2.325,0 4.354,0.524 6.083,1.573c1.729,1.048 3.054,2.461 3.971,4.239c0.921,1.778 1.379,3.745 1.379,5.902c0,2.158 -0.458,4.125 -1.379,5.903c-0.917,1.778 -2.242,3.19 -3.971,4.239c-1.729,1.048 -3.758,1.572 -6.083,1.572c-2.358,0 -4.4,-0.524 -6.129,-1.572c-1.729,-1.048 -3.046,-2.461 -3.95,-4.239c-0.9,-1.778 -1.354,-3.745 -1.354,-5.903c0,-2.157 0.454,-4.125 1.354,-5.902c0.904,-1.778 2.221,-3.19 3.95,-4.239c1.729,-1.048 3.771,-1.573 6.129,-1.573Zm110.117,0.456l0,12.032l0.004,0.454c0.05,2.082 0.438,3.647 1.167,4.697c0.779,1.124 2.042,1.686 3.788,1.686c1.008,0 1.929,-0.19 2.754,-0.57c0.825,-0.38 1.517,-0.935 2.067,-1.664l0,-16.636l4.775,0l0,22.515l-4.363,0l-0.275,-1.96l-0.263,0.276c-1.438,1.427 -3.275,2.14 -5.525,2.14c-2.996,0 -5.233,-0.881 -6.7,-2.644c-1.471,-1.762 -2.204,-4.315 -2.204,-7.657l0,-12.67l4.775,0Zm98.058,-0.41c2.817,0 4.867,0.76 6.154,2.279c1.283,1.519 1.929,4.102 1.929,7.748l0,5.625c0.012,0.993 0.062,1.747 0.158,2.26c0.108,0.578 0.321,0.988 0.642,1.231c0.325,0.243 0.837,0.365 1.542,0.365l0.55,0l-0.55,3.874l-1.058,0l-0.387,-0.005c-1.4,-0.037 -2.471,-0.279 -3.217,-0.724c-0.813,-0.486 -1.462,-1.246 -1.95,-2.279c-0.829,0.942 -1.837,1.679 -3.033,2.21c-1.192,0.532 -2.492,0.798 -3.9,0.798c-1.992,0 -3.621,-0.608 -4.892,-1.823c-1.271,-1.215 -1.904,-2.81 -1.904,-4.785c0,-1.975 0.696,-3.555 2.087,-4.74c1.396,-1.185 3.083,-2.028 5.075,-2.53c1.987,-0.501 4.008,-0.767 6.062,-0.798c-0.033,-1.732 -0.408,-2.925 -1.125,-3.578c-0.721,-0.653 -1.875,-0.98 -3.467,-0.98c-0.983,0 -1.954,0.144 -2.917,0.433c-0.967,0.288 -2.029,0.782 -3.192,1.481l-0.55,-3.874l0.492,-0.29c1,-0.56 2.083,-1.002 3.25,-1.328c1.363,-0.38 2.763,-0.57 4.2,-0.57Zm23.483,-5.378l0,5.788l5.554,0l0,3.783l-5.554,0l0,11.507c0.013,1.215 0.096,2.066 0.25,2.554c0.171,0.532 0.512,0.873 1.033,1.025c0.521,0.152 1.5,0.228 2.942,0.228l1.237,0l-0.367,3.874l-3.904,0l-0.392,-0.007c-1.792,-0.067 -3.154,-0.604 -4.083,-1.611c-0.996,-1.078 -1.492,-2.408 -1.492,-3.988l0,-13.582l-3.629,0l0.413,-3.783l3.217,0l0,-5.332l4.775,-0.456Zm36.079,5.332c2.329,0 4.354,0.524 6.087,1.573c1.729,1.048 3.05,2.461 3.971,4.239c0.917,1.778 1.375,3.745 1.375,5.902c0,2.158 -0.458,4.125 -1.375,5.903c-0.921,1.778 -2.242,3.19 -3.971,4.239c-1.733,1.048 -3.758,1.572 -6.087,1.572c-2.354,0 -4.4,-0.524 -6.129,-1.572c-1.729,-1.048 -3.046,-2.461 -3.946,-4.239c-0.904,-1.778 -1.354,-3.745 -1.354,-5.903c0,-2.157 0.45,-4.125 1.354,-5.902c0.9,-1.778 2.217,-3.19 3.946,-4.239c1.729,-1.048 3.775,-1.573 6.129,-1.573Zm55.183,0c2.388,0 4.562,0.532 6.521,1.595l-0.504,4.193l-0.408,-0.29c-0.808,-0.56 -1.617,-1.003 -2.417,-1.328c-0.933,-0.38 -1.967,-0.57 -3.1,-0.57c-1.192,0 -2.125,0.228 -2.8,0.684c-0.675,0.456 -1.008,1.124 -1.008,2.005c0,0.638 0.167,1.155 0.504,1.55c0.337,0.395 0.825,0.73 1.471,1.003c0.642,0.273 1.65,0.653 3.029,1.14c1.958,0.668 3.513,1.489 4.658,2.461c1.15,0.973 1.721,2.401 1.721,4.285c0,1.945 -0.708,3.547 -2.133,4.808c-1.421,1.261 -3.633,1.892 -6.633,1.892c-2.879,0 -5.45,-0.608 -7.712,-1.823l0.504,-4.375l0.388,0.267c0.8,0.523 1.708,0.973 2.733,1.35c1.196,0.441 2.496,0.661 3.904,0.661c1.317,0 2.325,-0.213 3.029,-0.638c0.704,-0.425 1.054,-1.063 1.054,-1.914c0,-0.942 -0.375,-1.664 -1.125,-2.165c-0.75,-0.501 -1.842,-0.98 -3.279,-1.436c-1.471,-0.486 -2.679,-0.965 -3.629,-1.435c-0.95,-0.471 -1.729,-1.132 -2.342,-1.983c-0.613,-0.851 -0.917,-1.945 -0.917,-3.282c0,-1.914 0.725,-3.502 2.179,-4.763c1.454,-1.261 3.558,-1.891 6.312,-1.891Zm-74.025,0.456l0,22.515l-4.775,0l0,-22.515l4.775,0Zm-422.655,-0.41c3.03,0 5.28,0.919 6.75,2.757c1.469,1.838 2.204,4.398 2.204,7.68l0,12.488l-4.775,0l0,-12.306l-0.005,-0.447c-0.052,-2.05 -0.463,-3.565 -1.234,-4.543c-0.827,-1.048 -2.189,-1.573 -4.087,-1.573c-1.163,0 -2.204,0.213 -3.122,0.638c-0.918,0.425 -1.668,1.048 -2.25,1.869l0,16.362l-4.775,0l0,-22.515l4.086,0l0.275,2.051l0.365,-0.281c1.959,-1.454 4.148,-2.18 6.568,-2.18Zm218.639,0c2.938,0 5.142,0.851 6.613,2.552c1.467,1.702 2.2,4.178 2.2,7.429l0,12.944l-4.821,0l0,-12.762l-0.004,-0.418c-0.046,-1.913 -0.429,-3.324 -1.142,-4.231c-0.767,-0.972 -2.004,-1.458 -3.721,-1.458c-3.55,0 -5.325,2.02 -5.325,6.062l0,12.808l-4.821,0l0,-12.306l-0.004,-0.436c-0.05,-2.142 -0.463,-3.682 -1.233,-4.623c-0.829,-1.002 -2.054,-1.504 -3.675,-1.504c-2.358,0 -4.133,0.82 -5.325,2.461l0,16.408l-4.775,0l0,-22.515l3.9,0l0.367,2.142l0.371,-0.292c1.983,-1.507 4.175,-2.261 6.562,-2.261c3.246,0 5.571,1.292 6.979,3.874c1.654,-2.582 4.271,-3.874 7.854,-3.874Zm-179.48,-11.257c1.255,0 2.464,0.167 3.627,0.501l-0.551,3.92l-0.377,-0.097c-0.62,-0.148 -1.199,-0.221 -1.735,-0.221c-1.867,0 -2.8,1.018 -2.8,3.053l0,4.512l5.647,0l0,3.783l-5.647,0l0,18.732l-4.775,0l0,-18.732l-3.627,0l0.551,-3.783l3.076,0l0,-5.105l0.008,-0.401c0.071,-1.846 0.643,-3.315 1.714,-4.407c1.148,-1.17 2.778,-1.755 4.89,-1.755Zm432.48,11.257c3.029,0 5.279,0.919 6.75,2.757c1.467,1.838 2.204,4.398 2.204,7.68l0,12.488l-4.775,0l0,-12.306l-0.008,-0.447c-0.05,-2.05 -0.463,-3.565 -1.233,-4.543c-0.825,-1.048 -2.188,-1.573 -4.088,-1.573c-1.163,0 -2.2,0.213 -3.121,0.638c-0.917,0.425 -1.667,1.048 -2.25,1.869l0,16.362l-4.775,0l0,-22.515l4.088,0l0.275,2.051l0.367,-0.281c1.958,-1.454 4.146,-2.18 6.567,-2.18Zm-417.125,0.41l0,22.515l-4.775,0l0,-22.515l4.775,0Zm264,-0.41c3.029,0 5.279,0.919 6.75,2.757c1.471,1.838 2.204,4.398 2.204,7.68l0,12.488l-4.775,0l0,-12.306l-0.004,-0.447c-0.054,-2.05 -0.463,-3.565 -1.237,-4.543c-0.825,-1.048 -2.188,-1.573 -4.083,-1.573c-1.167,0 -2.204,0.213 -3.125,0.638c-0.917,0.425 -1.667,1.048 -2.25,1.869l0,16.362l-4.775,0l0,-22.515l4.088,0l0.275,2.051l0.367,-0.281c1.958,-1.454 4.146,-2.18 6.567,-2.18Zm-296.225,0.41l0,22.515l-4.775,0l0,-22.515l4.775,0Zm239.759,-0.41c2.938,0 5.142,0.851 6.613,2.552c1.467,1.702 2.204,4.178 2.204,7.429l0,12.944l-4.825,0l0,-12.762l-0.004,-0.418c-0.046,-1.913 -0.429,-3.324 -1.142,-4.231c-0.767,-0.972 -2.004,-1.458 -3.721,-1.458c-3.55,0 -5.325,2.02 -5.325,6.062l0,12.808l-4.821,0l0,-12.306l-0.004,-0.436c-0.05,-2.142 -0.458,-3.682 -1.233,-4.623c-0.829,-1.002 -2.054,-1.504 -3.675,-1.504c-2.358,0 -4.133,0.82 -5.325,2.461l0,16.408l-4.775,0l0,-22.515l3.9,0l0.371,2.142l0.367,-0.292c1.988,-1.507 4.175,-2.261 6.567,-2.261c3.242,0 5.571,1.292 6.975,3.874c1.654,-2.582 4.271,-3.874 7.854,-3.874Zm78.754,0.41l0,22.515l-4.775,0l0,-22.515l4.775,0Zm-466.302,-73.73c1.312,-0.362 2.915,-0.076 5.023,1.161l8.625,5.045c6.44,3.763 4.646,24.585 3.693,31.715c0,0 -2.043,14.502 -8.515,25.86c-6.033,10.582 -16.525,18.082 -16.525,18.082c-6.429,4.197 -22.512,16.391 -28.948,12.623l-8.855,-5.183c-1.955,-1.143 -2.975,-2.296 -3.366,-3.503l23.076,-18.551c6.44,3.763 15.345,-5.108 18.514,-10.67l3.103,-5.44c3.171,-5.571 6.296,-17.816 -0.14,-21.584l4.316,-29.555Zm-117.333,0l4.316,29.555c-6.436,3.768 -3.311,16.013 -0.14,21.584l3.103,5.44c3.169,5.562 12.074,14.433 18.514,10.67l23.076,18.551c-0.39,1.208 -1.411,2.36 -3.365,3.503l-8.855,5.183c-6.437,3.768 -22.519,-8.426 -28.948,-12.623c0,0 -10.492,-7.5 -16.525,-18.082c-6.472,-11.359 -8.515,-25.86 -8.515,-25.86c-0.953,-7.131 -2.746,-27.952 3.693,-31.715l8.625,-5.045c2.109,-1.237 3.711,-1.523 5.023,-1.161Zm628.077,85.262l-0.442,0.017c-5.217,0.249 -7.825,1.777 -7.825,4.586c0,2.066 1.1,3.099 3.304,3.099c0.887,0 1.783,-0.213 2.687,-0.638c0.904,-0.425 1.663,-1.018 2.275,-1.778l0,-5.287Zm-211.483,-7.931c-2.083,0 -3.688,0.684 -4.821,2.051c-1.133,1.367 -1.7,3.236 -1.7,5.606c0,2.37 0.567,4.239 1.7,5.606c1.133,1.367 2.738,2.051 4.821,2.051c2.083,0 3.688,-0.684 4.821,-2.051c1.133,-1.368 1.7,-3.236 1.7,-5.606c0,-2.37 -0.567,-4.239 -1.7,-5.606c-1.133,-1.368 -2.738,-2.051 -4.821,-2.051Zm267.738,0c-2.079,0 -3.688,0.684 -4.821,2.051c-1.129,1.367 -1.696,3.236 -1.696,5.606c0,2.37 0.567,4.239 1.696,5.606c1.133,1.367 2.742,2.051 4.821,2.051c2.083,0 3.692,-0.684 4.825,-2.051c1.129,-1.368 1.696,-3.236 1.696,-5.606c0,-2.37 -0.567,-4.239 -1.696,-5.606c-1.133,-1.368 -2.742,-2.051 -4.825,-2.051Zm-341.535,0.046c-1.928,0 -3.459,0.706 -4.591,2.119c-1.132,1.413 -1.699,3.259 -1.699,5.538c0,2.188 0.566,4.003 1.699,5.446c1.132,1.443 2.663,2.165 4.591,2.165c1.775,0 3.237,-0.661 4.385,-1.982c1.148,-1.322 1.722,-3.198 1.722,-5.629c0,-2.34 -0.582,-4.201 -1.745,-5.583c-1.163,-1.382 -2.617,-2.074 -4.362,-2.074Zm-27.017,0c-3.092,0 -5.035,1.625 -5.831,4.877l10.79,0c0,-1.428 -0.413,-2.598 -1.24,-3.51c-0.826,-0.911 -2.066,-1.367 -3.719,-1.367Zm-227.518,-14.091l-22.953,17.613l0.001,0.004c-1.416,-1.411 -3.399,-6.931 -1.972,-8.049l17.208,-13.628c1.422,-1.12 6.3,2.652 7.716,4.059Zm-59.187,0c1.415,-1.408 6.294,-5.179 7.715,-4.059l17.208,13.628c1.427,1.118 -0.555,6.637 -1.972,8.049l0.001,-0.004l-22.953,-17.613Zm268.274,1.056l0,5.014l-4.775,0l0,-5.014l4.775,0Zm286.288,0l0,5.014l-4.775,0l0,-5.014l4.775,0Zm-318.513,0l0,5.014l-4.775,0l0,-5.014l4.775,0Zm400.367,0l0,5.014l-4.775,0l0,-5.014l4.775,0Zm-156.317,-97.368c23.083,0 40.187,15.849 40.187,37.5c0,21.65 -17.104,37.5 -40.187,37.5c-23.188,0 -40.183,-15.953 -40.183,-37.5c0,-21.547 16.996,-37.5 40.183,-37.5Zm-80.688,0c12.908,0 23.608,4.351 30.746,12.535l-10.913,9.945c-5.354,-5.594 -11.542,-8.184 -18.992,-8.184c-14.271,0 -24.029,9.427 -24.029,23.205c0,13.57 9.758,23.204 23.817,23.204c4.617,0 8.921,-0.829 13.221,-3.108l0,-21.236l15.529,0l0,29.42c-8.079,6.008 -19.2,9.22 -29.692,9.22c-23.083,0 -40.082,-15.643 -40.082,-37.5c0,-21.858 16.998,-37.5 40.394,-37.5Zm-106.496,1.243l36.514,44.026l0,-44.026l16.788,0l0,72.514l-13.955,0l-36.618,-44.026l0,44.026l-16.788,0l0,-72.514l14.06,-0Zm-31.477,0l0,72.514l-16.997,0l0,-72.514l16.997,-0Zm-62.325,0c19.621,0 31.897,10.048 31.897,26.312c0,10.877 -5.561,18.854 -15.109,22.894l16.473,23.308l-18.257,0l-14.165,-20.2l-15.634,0l0,20.2l-16.998,0l0,-72.514l31.792,-0Zm389.686,0l0,13.674l-23.5,0l0,58.84l-17,0l0,-58.84l-23.5,0l0,-13.674l64,0Zm64.633,0l0,13.467l-38.608,0l0,15.746l34.1,0l0,13.053l-34.1,0l0,16.782l39.975,0l0,13.467l-56.871,0l0,-72.514l55.504,-0Zm31.9,0l0,58.84l36.825,0l0,13.674l-53.825,0l0,-72.514l17,-0Zm-610.558,33.719c0.249,-1.804 5.971,-2.83 7.885,-2.295l-3.617,28.894c-1.919,-0.538 -7.586,-2.919 -7.342,-4.726l3.074,-21.873Zm-90.363,0l3.074,21.873c0.244,1.808 -5.423,4.188 -7.342,4.726l-3.617,-28.894c1.914,-0.535 7.636,0.491 7.885,2.295Zm495.687,-20.667c-13.117,0 -22.979,9.427 -22.979,23.205c0,13.778 9.863,23.204 22.979,23.204c13.117,0 22.979,-9.427 22.979,-23.204c0,-13.778 -9.862,-23.205 -22.979,-23.205Zm-281.93,0.622l-13.85,0l0,25.276l13.85,0c10.388,0 15.634,-4.765 15.634,-12.638c0,-7.976 -5.246,-12.638 -15.634,-12.638Zm-148.389,-1.767l27.031,11.34c-0.49,1.912 -4.247,6.315 -5.946,5.627l-20.63,-8.295c-1.7,-0.694 -0.944,-6.753 -0.455,-8.671Zm-40.263,-0.316c0.521,1.92 1.374,7.997 -0.315,8.659l-20.501,7.971c-1.689,0.667 -5.516,-3.796 -6.04,-5.719l0.003,0.003l26.852,-10.914Zm18.516,-32.809c13.151,0.119 26.832,5.614 26.832,5.614c6.701,2.746 25.773,11.616 25.839,19.03l0.091,9.932c0.025,2.43 -0.526,3.95 -1.498,4.897l-27.957,-11.069c-0.071,-7.414 -12.323,-10.851 -18.771,-10.912l-6.3,-0.054c-6.44,-0.058 -18.636,3.158 -18.571,10.572l-27.732,10.55c-0.859,-0.939 -1.355,-2.392 -1.376,-4.643l-0.097,-10.2c-0.071,-7.414 18.615,-15.134 25.493,-18.56c0,-0 11.792,-5.265 24.047,-5.157Z" style="fill:url(#_Linear2);"/></g></g><defs><linearGradient id="_Linear2" x1="0" y1="0" x2="1" y2="0" gradientUnits="userSpaceOnUse" gradientTransform="matrix(769.545833,0,0,769.545833,0,79.110417)"><stop offset="0" style="stop-color:#00aff5;stop-opacity:1"/><stop offset="0.13" style="stop-color:#00aff5;stop-opacity:1"/><stop offset="1" style="stop-color:#0083b8;stop-opacity:1"/></linearGradient></defs></svg>